<?xml version="1.0" encoding="utf-8"?>
<!-- Generator: Adobe Illustrator 24.3.0, SVG Export Plug-In . SVG Version: 6.00 Build 0)  -->
<svg version="1.1" id="Layer_1" xmlns="http://www.w3.org/2000/svg" xmlns:xlink="http://www.w3.org/1999/xlink" x="0px" y="0px"
	 viewBox="0 0 1500 1000" style="enable-background:new 0 0 1500 1000;" xml:space="preserve">
<style type="text/css">
	.st0{fill:#FFFFFF;}
	.st1{fill:#B18B5D;}
</style>
<g>
	<g>
		<path d="M75.4,357.9h72.3v24.9h-11.2v-5c0-1-0.1-2.1-0.3-3.1c-0.2-1.1-0.4-2.2-0.8-3.2c-0.4-1.1-0.9-1.9-1.6-2.6
			c-0.7-0.7-1.5-1-2.3-1h-10v57.4h10v10H91.6v-10h10v-57.4h-10c-0.9,0-1.7,0.3-2.3,1c-0.7,0.7-1.2,1.5-1.6,2.6
			c-0.4,1.1-0.6,2.1-0.8,3.2c-0.2,1.1-0.3,2.1-0.3,3.1v5H75.4V357.9z"/>
	</g>
	<g>
		<path d="M194.4,376.6c2.9,0,5.5,0.4,7.6,1.2c2.2,0.8,4,1.9,5.4,3.3c1.4,1.4,2.5,3.1,3.4,5.3c0.9,2.1,1.5,4.4,1.8,6.9
			c0.3,2.4,0.5,5.2,0.5,8.4v23.7h6.2v10h-29.9v-10h6.2v-24.9c0-3.3-0.3-5.8-0.9-7.7c-0.6-1.8-1.4-3.1-2.6-3.8c-1.1-0.7-2.6-1-4.5-1
			c-1.8,0-3.6,0.8-5.4,2.3c-1.9,1.5-3.6,3.6-5.3,6.4v28.8h6.2v10h-29.9v-10h6.2v-57.4h-6.2v-10H177v28.5c0.7-1.4,1.6-2.7,2.7-3.8
			c1-1.1,2.2-2.1,3.6-3.1c1.4-0.9,3-1.6,4.9-2.2C190.1,376.8,192.2,376.6,194.4,376.6z"/>
	</g>
	<g>
		<path d="M241.1,410.2c0.2,2.4,0.6,4.6,1.2,6.5c0.6,1.9,1.3,3.4,2.2,4.6c0.9,1.2,1.9,2.2,3,3c1.1,0.8,2.3,1.3,3.5,1.7
			c1.2,0.3,2.5,0.5,3.9,0.5c4.4,0,7.8-0.8,10.3-2.5c2.5-1.7,4.4-4.3,5.9-7.8l8.3,2.9c-0.7,2-1.7,3.9-2.9,5.7
			c-1.2,1.8-2.5,3.4-4.2,4.9c-1.6,1.5-3.4,2.8-5.4,3.9c-2,1.1-4.2,1.9-6.7,2.5c-2.5,0.6-5.1,0.9-7.9,0.9c-4.1,0-8-0.7-11.6-2.2
			s-6.8-3.4-9.5-6c-2.7-2.6-4.8-5.7-6.4-9.5c-1.6-3.8-2.4-7.9-2.4-12.3s0.8-8.5,2.4-12.3c1.6-3.8,3.7-7,6.4-9.6
			c2.7-2.6,5.9-4.6,9.5-6.1c3.6-1.5,7.5-2.2,11.6-2.2s8,0.7,11.6,2.2c3.6,1.5,6.8,3.5,9.5,6.1c2.7,2.6,4.8,5.8,6.4,9.6
			c1.6,3.8,2.4,7.9,2.4,12.3l-0.8,3.4H241.1z M241.4,400.3h22c-0.5-4.8-1.7-8.3-3.6-10.4c-1.8-2.2-4.3-3.3-7.4-3.3
			c-1.5,0-2.9,0.2-4.1,0.7c-1.2,0.5-2.3,1.3-3.2,2.3c-1,1.1-1.8,2.5-2.4,4.3C242.1,395.7,241.6,397.8,241.4,400.3z"/>
	</g>
	<g>
		<path d="M112.4,519.9c0,3.1,0.7,5.9,2.2,8.4c1.4,2.5,3.4,4.5,5.8,6.2c2.4,1.7,5.2,3.2,8.3,4.6c3.1,1.4,6.4,2.7,9.9,4
			c3.5,1.3,6.9,2.6,10.4,3.9c3.5,1.4,6.8,3,9.9,4.9c3.1,1.9,5.9,4,8.3,6.3c2.4,2.3,4.3,5.3,5.8,8.8c1.4,3.5,2.2,7.4,2.2,11.8
			c0,5.3-1.2,10.3-3.5,14.9c-2.4,4.6-5.6,8.6-9.7,11.8c-4.1,3.3-9.1,5.9-14.9,7.7c-5.9,1.9-12.2,2.8-18.9,2.8
			c-2.6,0-5.4-0.2-8.3-0.5c-2.9-0.3-6-0.9-9.2-1.7c-3.2-0.8-6.3-1.8-9.3-3c-3-1.2-5.8-2.7-8.6-4.5c-2.7-1.8-5.1-3.8-7.1-6.1
			c-2-2.2-3.6-4.8-4.8-7.9c-1.2-3-1.8-6.3-1.8-9.7c0-4.3,1.5-8.1,4.6-11.1c3.1-3.1,6.8-4.6,11.1-4.6c4.4,0,8.1,1.5,11.1,4.6
			c3.1,3.1,4.6,6.8,4.6,11.1c0,2.8-0.7,5.4-2,7.8c-1.4,2.4-3.2,4.3-5.5,5.7c4.9,2.8,11.4,4.2,19.3,4.2c7.1,0,12.5-1.1,16.1-3.3
			c3.6-2.2,5.5-5.7,5.5-10.5c0-3.1-0.7-5.9-2.2-8.4c-1.4-2.5-3.4-4.5-5.8-6.2c-2.4-1.7-5.2-3.2-8.3-4.6c-3.1-1.4-6.4-2.7-9.9-4
			c-3.5-1.3-6.9-2.6-10.4-3.9c-3.5-1.4-6.8-3-9.9-4.9c-3.1-1.9-5.9-4-8.3-6.3c-2.4-2.3-4.4-5.3-5.8-8.8c-1.4-3.5-2.2-7.4-2.2-11.8
			c0-5.4,1.1-10.3,3.2-14.9c2.1-4.6,5.2-8.5,9-11.8c3.9-3.3,8.6-5.9,14.3-7.7c5.7-1.9,11.9-2.8,18.6-2.8c2.6,0,5.3,0.2,8.2,0.5
			c2.8,0.3,5.8,0.9,8.9,1.7c3.1,0.8,6.1,1.8,8.9,3c2.8,1.2,5.6,2.7,8.2,4.5c2.6,1.8,4.8,3.8,6.7,6.1c1.9,2.2,3.4,4.8,4.5,7.9
			c1.1,3,1.7,6.2,1.7,9.7c0,4.4-1.5,8.1-4.6,11.1c-3.1,3.1-6.8,4.6-11.1,4.6c-4.4,0-8.1-1.5-11.1-4.6c-3.1-3.1-4.6-6.8-4.6-11.1
			c0-2.9,0.7-5.6,2.2-8c1.5-2.4,3.4-4.3,5.8-5.7c-4.4-2.6-10.3-3.9-17.9-3.9c-6.9,0-11.9,1.1-15,3.2
			C114,511.5,112.4,515,112.4,519.9z"/>
	</g>
	<g>
		<path d="M213.4,574.8c0.3,3.8,0.9,7.2,1.9,10.2c0.9,3,2.1,5.4,3.5,7.3c1.4,1.9,2.9,3.5,4.7,4.7c1.8,1.2,3.6,2.1,5.5,2.6
			c1.9,0.5,3.9,0.8,6.1,0.8c6.9,0,12.3-1.3,16.2-4c3.9-2.7,7-6.8,9.3-12.3l13.1,4.5c-1.2,3.2-2.7,6.2-4.5,9c-1.8,2.8-4,5.4-6.6,7.7
			c-2.6,2.4-5.4,4.4-8.5,6.1c-3.1,1.7-6.6,3-10.6,3.9c-3.9,0.9-8.1,1.4-12.4,1.4c-6.4,0-12.5-1.1-18.3-3.4s-10.7-5.4-15-9.4
			c-4.2-4-7.6-9-10.1-14.9c-2.5-5.9-3.7-12.4-3.7-19.3c0-7,1.2-13.4,3.7-19.4c2.5-6,5.8-11,10.1-15.1c4.2-4.1,9.2-7.3,15-9.6
			c5.7-2.3,11.8-3.5,18.3-3.5c6.4,0,12.5,1.2,18.3,3.5c5.7,2.3,10.7,5.5,15,9.6c4.2,4.1,7.6,9.2,10.1,15.1c2.5,6,3.7,12.5,3.7,19.4
			l-1.2,5.3H213.4z M213.8,559.1h34.6c-0.9-7.5-2.7-13-5.6-16.4c-2.9-3.4-6.8-5.2-11.6-5.2c-2.4,0-4.5,0.4-6.4,1.2
			c-1.9,0.8-3.6,2-5.1,3.7c-1.5,1.7-2.8,3.9-3.8,6.7C214.9,551.9,214.2,555.3,213.8,559.1z"/>
	</g>
	<g>
		<path d="M350.7,521.9c4.6,0,8.6,0.6,12,1.9c3.4,1.2,6.2,3,8.4,5.1c2.2,2.2,4,4.9,5.3,8.3c1.4,3.4,2.3,7,2.8,10.8
			c0.5,3.8,0.8,8.2,0.8,13.2v37.3h9.8v15.7h-47.1v-15.7h9.8v-39.3c0-5.2-0.5-9.2-1.4-12.1c-0.9-2.9-2.3-4.9-4-5.9
			c-1.8-1.1-4.1-1.6-7.1-1.6c-2.7,0-5.6,1.2-8.4,3.5c-2.9,2.3-5.6,5.6-8.2,9.7l-0.2,45.7h9.8v15.7h-47.1v-15.7h9.8v-58.9h-9.8v-15.7
			h30.5l6.9,13.3c1.2-2.2,2.6-4.2,4.2-5.9c1.6-1.8,3.5-3.4,5.7-4.8c2.2-1.5,4.8-2.6,7.8-3.4C343.9,522.2,347.2,521.9,350.7,521.9z"
			/>
	</g>
	<g>
		<path d="M419.4,504.2h9.8v19.6h27.5v15.7h-27.5v51c0,2.2,0.6,4.1,1.9,5.6c1.3,1.5,3.2,2.3,6,2.3c3,0,5.6-1,7.8-3
			c2.1-2,3.5-4.9,4-8.8l11.8,2c-0.5,3.8-1.4,7.4-2.8,10.6c-1.4,3.3-3.2,6.1-5.4,8.7c-2.2,2.5-5,4.5-8.3,6c-3.3,1.5-6.9,2.2-11,2.2
			c-9.8,0-17.5-2.3-23-6.8c-5.6-4.6-8.4-10.8-8.4-18.7v-51h-9.8v-15.7h2c5,0,9.5-1.4,13.3-4.3C411.1,516.6,415.1,511.5,419.4,504.2z
			"/>
	</g>
	<g>
		<path d="M468.5,523.8h37.3v74.6h9.8v15.7h-47.1v-15.7h9.8v-58.9h-9.8V523.8z M480.9,513.3c-3.1-3.1-4.6-6.8-4.6-11.1
			c0-4.3,1.5-8.1,4.6-11.1s6.8-4.6,11.1-4.6s8.1,1.5,11.1,4.6c3.1,3.1,4.6,6.8,4.6,11.1c0,4.4-1.5,8.1-4.6,11.1
			c-3.1,3.1-6.8,4.6-11.1,4.6S484,516.4,480.9,513.3z"/>
	</g>
	<g>
		<path d="M645.1,521.9c4.6,0,8.6,0.6,12,1.9c3.4,1.2,6.2,3,8.4,5.1c2.2,2.2,4,4.9,5.3,8.3c1.4,3.4,2.3,7,2.8,10.8
			c0.5,3.8,0.8,8.2,0.8,13.2v37.3h9.8v15.7h-47.1v-15.7h9.8v-39.3c0-5.2-0.5-9.2-1.4-12.1c-0.9-2.9-2.3-4.9-4-5.9
			c-1.7-1.1-4.1-1.6-7.1-1.6c-2.8,0-5.7,1.2-8.7,3.7c-3,2.5-5.8,5.9-8.4,10.3c0.2,2.4,0.2,4.9,0.2,7.6v37.3h9.8v15.7h-47.1v-15.7
			h9.8v-39.3c0-5.2-0.5-9.2-1.4-12.1c-0.9-2.9-2.3-4.9-4-5.9c-1.8-1.1-4.1-1.6-7.1-1.6c-2.7,0-5.6,1.2-8.4,3.5
			c-2.9,2.3-5.6,5.6-8.2,9.7l-0.2,45.7h9.8v15.7h-47.1v-15.7h9.8v-58.9h-9.8v-15.7h30.5l6.9,13.3c1.2-2.2,2.6-4.2,4.2-5.9
			c1.6-1.8,3.5-3.4,5.7-4.8c2.2-1.5,4.8-2.6,7.8-3.4c3-0.8,6.2-1.2,9.8-1.2c4,0,7.5,0.4,10.6,1.3c3.1,0.9,5.7,2.2,7.9,4
			c2.2,1.7,4,3.8,5.4,6.2c1.4,2.4,2.6,5.2,3.4,8.4c0.8-2.1,1.8-4.1,2.9-6c1.1-1.9,2.5-3.7,4.2-5.4c1.7-1.8,3.6-3.2,5.7-4.5
			c2.1-1.2,4.6-2.2,7.4-2.9C638.6,522.2,641.7,521.9,645.1,521.9z"/>
	</g>
	<g>
		<path d="M718.6,574.8c0.3,3.8,0.9,7.2,1.9,10.2c0.9,3,2.1,5.4,3.5,7.3c1.4,1.9,2.9,3.5,4.7,4.7c1.8,1.2,3.6,2.1,5.5,2.6
			s3.9,0.8,6.1,0.8c6.9,0,12.3-1.3,16.2-4c3.9-2.7,7-6.8,9.3-12.3l13,4.5c-1.2,3.2-2.7,6.2-4.5,9c-1.8,2.8-4,5.4-6.6,7.7
			c-2.6,2.4-5.4,4.4-8.5,6.1c-3.1,1.7-6.6,3-10.6,3.9c-3.9,0.9-8.1,1.4-12.4,1.4c-6.4,0-12.5-1.1-18.3-3.4c-5.7-2.3-10.7-5.4-15-9.4
			c-4.2-4-7.6-9-10.1-14.9c-2.5-5.9-3.7-12.4-3.7-19.3c0-7,1.2-13.4,3.7-19.4c2.5-6,5.8-11,10.1-15.1c4.2-4.1,9.2-7.3,15-9.6
			c5.7-2.3,11.8-3.5,18.3-3.5c6.4,0,12.5,1.2,18.3,3.5c5.7,2.3,10.7,5.5,15,9.6c4.2,4.1,7.6,9.2,10.1,15.1c2.5,6,3.7,12.5,3.7,19.4
			l-1.2,5.3H718.6z M718.9,559.1h34.6c-0.8-7.5-2.7-13-5.6-16.4c-2.9-3.4-6.8-5.2-11.6-5.2c-2.4,0-4.5,0.4-6.4,1.2s-3.6,2-5.1,3.7
			c-1.5,1.7-2.8,3.9-3.8,6.7C720.1,551.9,719.4,555.3,718.9,559.1z"/>
	</g>
	<g>
		<path d="M855.9,521.9c4.6,0,8.6,0.6,12,1.9c3.4,1.2,6.2,3,8.4,5.1c2.2,2.2,4,4.9,5.3,8.3c1.4,3.4,2.3,7,2.8,10.8
			c0.5,3.8,0.8,8.2,0.8,13.2v37.3h9.8v15.7H848v-15.7h9.8v-39.3c0-5.2-0.5-9.2-1.4-12.1c-0.9-2.9-2.3-4.9-4-5.9
			c-1.8-1.1-4.1-1.6-7.1-1.6c-2.7,0-5.6,1.2-8.4,3.5c-2.9,2.3-5.6,5.6-8.2,9.7l-0.2,45.7h9.8v15.7h-47.1v-15.7h9.8v-58.9h-9.8v-15.7
			h30.5l6.9,13.3c1.2-2.2,2.6-4.2,4.2-5.9c1.6-1.8,3.5-3.4,5.7-4.8c2.2-1.5,4.8-2.6,7.8-3.4C849.1,522.2,852.3,521.9,855.9,521.9z"
			/>
	</g>
	<g>
		<path d="M924.6,504.2h9.8v19.6h27.5v15.7h-27.5v51c0,2.2,0.6,4.1,1.9,5.6c1.3,1.5,3.2,2.3,6,2.3c3,0,5.6-1,7.8-3
			c2.1-2,3.5-4.9,4-8.8l11.8,2c-0.5,3.8-1.4,7.4-2.8,10.6c-1.4,3.3-3.2,6.1-5.4,8.7c-2.2,2.5-5,4.5-8.3,6c-3.3,1.5-6.9,2.2-11,2.2
			c-9.8,0-17.5-2.3-23-6.8c-5.6-4.6-8.4-10.8-8.4-18.7v-51h-9.8v-15.7h2c5,0,9.5-1.4,13.3-4.3C916.2,516.6,920.3,511.5,924.6,504.2z
			"/>
	</g>
	<g>
		<path d="M1002.5,598.4c1.9,1.3,4.7,1.9,8.4,1.9c3.4,0,6.1-0.2,8.2-0.6c2.1-0.4,3.7-1,4.8-1.9c1.1-0.9,1.8-1.9,2.2-3
			c0.4-1.1,0.5-2.5,0.5-4.3c0-2.1-0.6-3.9-1.7-5.4c-1.1-1.5-2.6-2.7-4.5-3.6c-1.9-0.9-4.1-1.7-6.5-2.4s-5-1.4-7.8-2
			c-2.7-0.6-5.4-1.3-8.1-2.1c-2.7-0.8-5.3-1.8-7.8-3c-2.5-1.3-4.6-2.7-6.5-4.5c-1.9-1.7-3.4-3.9-4.5-6.7c-1.1-2.7-1.7-5.9-1.7-9.5
			c0-3.3,0.4-6.2,1.2-8.9c0.8-2.7,1.8-5,3.1-6.8c1.3-1.9,3-3.5,5-4.9c2-1.4,4.1-2.5,6.3-3.4c2.2-0.9,4.6-1.5,7.4-2.1
			c2.7-0.5,5.4-0.9,7.9-1.1s5.3-0.3,8.3-0.3c6.5,0,12.3,0.8,17.1,2.5c4.9,1.7,8.7,3.9,11.6,6.7c1.5,1.3,2.7,2.8,3.5,4.6
			c0.8,1.8,1.2,3.7,1.2,5.8c0,3.8-1.3,7-4,9.7c-2.7,2.7-5.9,4-9.7,4s-7-1.3-9.7-4c-2.7-2.7-4-5.9-4-9.7c0-1.4,0.2-2.7,0.6-4
			c-1.9-1.3-4.7-1.9-8.4-1.9c-4.6,0-8.1,0.6-10.3,1.7c-2.3,1.1-3.4,3.2-3.4,6.2c0,1.9,0.5,3.6,1.4,5c0.9,1.5,2.2,2.7,3.9,3.6
			c1.6,0.9,3.5,1.8,5.7,2.7c2.2,0.8,4.5,1.5,6.9,2.1c2.5,0.6,5,1.3,7.6,2.1c2.6,0.8,5.1,1.7,7.6,2.5c2.5,0.9,4.8,2,6.9,3.4
			c2.2,1.4,4.1,3,5.7,4.7c1.6,1.7,2.9,3.9,3.9,6.5c0.9,2.6,1.4,5.5,1.4,8.7c0,4.6-0.8,8.6-2.3,12.1c-1.5,3.5-3.5,6.3-6.1,8.5
			c-2.5,2.2-5.7,3.9-9.4,5.3c-3.8,1.4-7.7,2.3-11.7,2.8c-4.1,0.5-8.6,0.8-13.5,0.8c-10,0-18.1-1.9-24.3-5.7
			c-6.1-3.8-9.2-9.1-9.2-15.8c0-3.8,1.3-7,4-9.7c2.7-2.7,5.9-4,9.7-4s7,1.3,9.7,4c2.7,2.7,4,5.9,4,9.7
			C1003.1,595.8,1002.9,597.2,1002.5,598.4z"/>
	</g>
	<g>
		<path d="M1177.7,490.5c17.2,0,30.9,4.6,41.2,13.7c4.2,3.7,7.2,7.5,9.1,11.3c1.8,3.8,2.7,8.5,2.7,14.3c0,4.4-1.5,8.1-4.6,11.1
			c-3.1,3.1-6.8,4.6-11.1,4.6c-4.4,0-8.1-1.5-11.1-4.6c-3.1-3.1-4.6-6.8-4.6-11.1c0-2.2,0.4-4.3,1.3-6.3c0.9-2,2.1-3.7,3.7-5.2
			c-2.4-4.4-5.5-7.5-9.5-9.3c-4-1.8-9-2.7-15.1-2.7c-4,0-7.6,0.8-11,2.4c-3.4,1.6-6.3,3.8-8.8,6.7s-4.6,6.3-6.4,10.2
			c-1.8,3.9-3.1,8.2-3.9,12.9c-0.9,4.7-1.3,9.6-1.3,14.8c0,5.1,0.5,10.1,1.6,14.8c1,4.7,2.6,9.1,4.6,13c2,3.9,4.3,7.3,7,10.2
			c2.7,2.9,5.8,5.1,9.2,6.7c3.5,1.6,7.1,2.4,11,2.4c5.6,0,10.7-1.5,15.5-4.5c4.8-3,8.8-7.2,11.9-12.5c3.2-5.4,5.1-11.5,5.9-18.3
			l15.7,3.9c-0.8,3.8-1.7,7.4-2.7,10.7c-1,3.3-2.4,6.6-3.9,9.8c-1.6,3.3-3.4,6.2-5.3,8.8c-2,2.6-4.4,5.1-7.1,7.3
			c-2.7,2.3-5.7,4.1-9,5.7c-3.3,1.5-7,2.7-11.2,3.6c-4.2,0.9-8.8,1.3-13.7,1.3c-5.9,0-11.4-0.6-16.8-1.8c-5.3-1.2-10.1-2.9-14.4-5.1
			c-4.3-2.2-8.3-4.8-11.9-7.9c-3.6-3-6.8-6.4-9.4-10.1c-2.7-3.7-4.9-7.6-6.7-11.7c-1.8-4.1-3.2-8.4-4.1-12.8
			c-0.9-4.4-1.4-8.9-1.4-13.4c0-4.5,0.5-9,1.4-13.4c0.9-4.4,2.3-8.7,4.1-12.8c1.8-4.1,4.1-8,6.7-11.7c2.6-3.7,5.8-7,9.4-10.1
			c3.6-3,7.6-5.7,11.9-7.9c4.3-2.2,9.1-3.9,14.4-5.1C1166.3,491.1,1171.9,490.5,1177.7,490.5z"/>
	</g>
	<g>
		<path d="M1268.3,525.5c5.7-2.3,11.8-3.4,18.3-3.4c6.4,0,12.5,1.1,18.3,3.4c5.7,2.3,10.7,5.4,15,9.4c4.3,4,7.6,9,10.1,14.9
			s3.7,12.4,3.7,19.3s-1.2,13.4-3.7,19.3s-5.8,10.9-10.1,14.9c-4.3,4-9.2,7.2-15,9.4c-5.7,2.3-11.8,3.4-18.3,3.4
			c-6.4,0-12.5-1.1-18.3-3.4c-5.7-2.3-10.7-5.4-15-9.4c-4.2-4-7.6-9-10.1-14.9s-3.7-12.4-3.7-19.3s1.2-13.4,3.7-19.3
			s5.8-10.9,10.1-14.9C1257.5,530.9,1262.5,527.8,1268.3,525.5z M1286.6,537.9c-2.3,0-4.3,0.3-6.1,1s-3.5,1.7-5,3.2
			c-1.5,1.5-2.7,3.5-3.7,5.8c-1,2.4-1.7,5.4-2.3,8.9c-0.5,3.6-0.8,7.7-0.8,12.4s0.3,8.8,0.8,12.4c0.5,3.6,1.3,6.5,2.3,8.9
			c1,2.4,2.2,4.3,3.7,5.8s3.2,2.6,5,3.2c1.8,0.7,3.8,1,6.1,1c2.9,0,5.4-0.5,7.5-1.6c2.1-1.1,4-2.9,5.6-5.3c1.6-2.4,2.8-5.7,3.6-9.8
			c0.8-4.1,1.2-9,1.2-14.7s-0.4-10.6-1.2-14.7c-0.8-4.1-2-7.3-3.6-9.8c-1.6-2.4-3.4-4.2-5.6-5.3
			C1291.9,538.4,1289.4,537.9,1286.6,537.9z"/>
	</g>
	<g>
		<path d="M1347,610.5c-3.1-3.1-4.6-6.8-4.6-11.1s1.5-8.1,4.6-11.1c3.1-3.1,6.8-4.6,11.1-4.6c4.4,0,8.1,1.5,11.1,4.6
			c3.1,3.1,4.6,6.8,4.6,11.1s-1.5,8.1-4.6,11.1c-3.1,3.1-6.8,4.6-11.1,4.6C1353.8,615.1,1350.1,613.5,1347,610.5z"/>
	</g>
	<g>
		<path d="M1369.6,452.1v-32.7h-12.2V415h29.4v4.4h-12.3v32.7H1369.6z"/>
		<path d="M1391.7,452.1V415h7.4l8.8,26.3c0.7,2.2,1.3,4,1.7,5.5c0.7-2.2,1.3-4.2,2-6l9-25.8h6.6v37.1h-4.7v-31l-10.8,31h-4.4
			l-10.8-31.6v31.6H1391.7z"/>
	</g>
</g>
</svg>
